<?xml version="1.0" encoding="UTF-8" standalone="no"?>
<!-- Generator: Adobe Illustrator 18.1.0, SVG Export Plug-In . SVG Version: 6.00 Build 0)  -->

<svg
   xmlns:osb="http://www.openswatchbook.org/uri/2009/osb"
   xmlns:dc="http://purl.org/dc/elements/1.1/"
   xmlns:cc="http://creativecommons.org/ns#"
   xmlns:rdf="http://www.w3.org/1999/02/22-rdf-syntax-ns#"
   xmlns:svg="http://www.w3.org/2000/svg"
   xmlns="http://www.w3.org/2000/svg"
   xmlns:xlink="http://www.w3.org/1999/xlink"
   xmlns:sodipodi="http://sodipodi.sourceforge.net/DTD/sodipodi-0.dtd"
   xmlns:inkscape="http://www.inkscape.org/namespaces/inkscape"
   version="1.1"
   id="Drop"
   x="0px"
   y="0px"
   viewBox="0 0 20 20"
   enable-background="new 0 0 20 20"
   xml:space="preserve"
   inkscape:version="0.91 r13725"
   sodipodi:docname="drop.svg"
   inkscape:export-filename="D:\dev\GitHub\Toway\drop.png"
   inkscape:export-xdpi="149.22087"
   inkscape:export-ydpi="149.22087"><metadata
   id="metadata9"><rdf:RDF><cc:Work
       rdf:about=""><dc:format>image/svg+xml</dc:format><dc:type
         rdf:resource="http://purl.org/dc/dcmitype/StillImage" /><dc:title></dc:title></cc:Work></rdf:RDF></metadata><defs
   id="defs7"><linearGradient
     inkscape:collect="always"
     id="linearGradient5619"><stop
       style="stop-color:#00b4f4;stop-opacity:1;"
       offset="0"
       id="stop5621" /><stop
       style="stop-color:#ffffff;stop-opacity:1"
       offset="1"
       id="stop5623" /></linearGradient><linearGradient
     id="linearGradient5597"
     osb:paint="solid"><stop
       style="stop-color:#00b4f4;stop-opacity:1;"
       offset="0"
       id="stop5599" /></linearGradient><radialGradient
     inkscape:collect="always"
     xlink:href="#linearGradient5619"
     id="radialGradient5627"
     cx="9.8774147"
     cy="10.994158"
     fx="9.8774147"
     fy="10.994158"
     r="5.6505"
     gradientTransform="matrix(1.9091304,0.86917638,-5.0570117,11.107636,43.563823,-117.1689)"
     gradientUnits="userSpaceOnUse" /></defs><sodipodi:namedview
   pagecolor="#ffffff"
   bordercolor="#666666"
   borderopacity="1"
   objecttolerance="10"
   gridtolerance="10"
   guidetolerance="10"
   inkscape:pageopacity="0"
   inkscape:pageshadow="2"
   inkscape:window-width="1099"
   inkscape:window-height="822"
   id="namedview5"
   showgrid="false"
   inkscape:zoom="16.68772"
   inkscape:cx="7.6194467"
   inkscape:cy="12.009017"
   inkscape:window-x="526"
   inkscape:window-y="140"
   inkscape:window-maximized="0"
   inkscape:current-layer="Drop" />
<path
   d="M10.203,0.561c-0.027-0.215-0.38-0.215-0.406,0C8.914,7.668,4.399,9.133,4.399,14.073c0,3.053,2.564,5.527,5.601,5.527  c3.036,0,5.6-2.475,5.6-5.527C15.6,9.133,11.086,7.668,10.203,0.561z M9.35,8.418C9.291,8.637,9.227,8.862,9.161,9.096  c-0.401,1.424-0.856,3.039-0.856,4.906c0,1.012-0.598,1.371-1.156,1.371c-0.639,0-1.156-0.523-1.156-1.166  c0-2.207,1.062-3.649,2-4.92c0.295-0.398,0.572-0.775,0.797-1.15C8.893,7.965,9.17,7.973,9.296,8.143  C9.355,8.223,9.375,8.325,9.35,8.418z"
   id="path3"
   style="fill:url(#radialGradient5627);fill-opacity:1;fill-rule:nonzero;stroke:#00b4f4;stroke-opacity:1;stroke-width:0.1;stroke-miterlimit:4;stroke-dasharray:none"
   inkscape:export-xdpi="90"
   inkscape:export-ydpi="90" />
</svg>